<svg width="40" height="40" viewBox="0 0 40 40" fill="none" xmlns="http://www.w3.org/2000/svg">
<path d="M20.5433 22.9257C20.1946 23.065 19.8061 23.065 19.4573 22.9257L15.7146 21.4285L20.0003 29.9999L24.286 21.4285L20.5433 22.9257Z" fill="#DC3CCC"/>
<path d="M19.9998 20L25.7141 18.0001L19.9998 9.99997L14.2855 18.0001L19.9998 20Z" fill="#DC3CCC"/>
<path d="M20.0001 -3.05176e-05C8.95439 -3.05176e-05 6.10352e-05 8.9543 6.10352e-05 20C6.10352e-05 31.0456 8.95439 40 20.0001 40C31.0457 40 40.0001 31.0456 40.0001 20C39.9879 8.95953 31.0405 0.0121766 20.0001 -3.05176e-05ZM28.4208 19.2104L21.2779 33.4962C20.9252 34.202 20.0668 34.488 19.3614 34.1353C19.0845 33.9971 18.8604 33.773 18.7222 33.4962L11.5794 19.2104C11.3574 18.7649 11.3827 18.236 11.6461 17.8136L18.7889 6.38515C19.2637 5.71637 20.1901 5.55855 20.8589 6.03332C20.9954 6.13011 21.1144 6.24869 21.2112 6.38515L28.3536 17.8136C28.6174 18.236 28.6427 18.7649 28.4208 19.2104Z" fill="#DC3CCC"/>
</svg>
