<svg width="40" height="40" viewBox="0 0 40 40" fill="none" xmlns="http://www.w3.org/2000/svg">
<path d="M20 -3.05176e-05C8.95433 -3.05176e-05 0 8.9543 0 20C0 31.0456 8.95433 40 20 40C31.0457 40 40 31.0456 40 20C39.9874 8.95953 31.0404 0.0126125 20 -3.05176e-05ZM29.8132 17.8001C29.0694 18.4571 28.2106 18.9706 27.2798 19.3142C26.621 19.5274 26.0185 19.8853 25.5163 20.3623C24.8497 21.9496 25.2591 23.7855 26.5378 24.9395C26.5814 24.9831 26.6223 25.0297 26.6603 25.079C28.269 27.1402 28.1055 30.073 26.2779 31.9429C24.2546 33.9627 20.9774 33.9627 18.9537 31.9429C17.6732 30.4061 17.2547 28.3269 17.8407 26.4144C17.9823 25.3092 17.6044 24.2001 16.8166 23.4118C16.0349 22.6585 14.9511 22.3049 13.8755 22.4518C11.9629 23.0369 9.88425 22.6171 8.34834 21.3362C6.32589 19.3164 6.32414 16.0396 8.34398 14.0176C8.34529 14.0159 8.34703 14.0146 8.34834 14.0133C10.2173 12.1844 13.1514 12.0209 15.2122 13.6309C16.6548 15.0565 18.7919 15.5365 19.9276 14.7723C20.4063 14.2714 20.7647 13.6684 20.9766 13.0088C21.3201 12.0789 21.8328 11.2209 22.4889 10.478C24.5114 8.45555 27.7899 8.45555 29.8123 10.4776C31.8352 12.5 31.8352 15.7785 29.8132 17.8009V17.8001Z" fill="#2B98D6"/>
</svg>
