<svg width="24" height="24" viewBox="0 0 24 24" fill="none" xmlns="http://www.w3.org/2000/svg">
<path d="M17 5.93356C16.9999 6.70698 16.7024 7.44898 16.1725 7.99783C14.9525 9.26262 13.7688 10.5814 12.5026 11.7999C12.3612 11.9323 12.1758 12.0039 11.9846 11.9998C11.7934 11.9958 11.6111 11.9164 11.4751 11.778L7.82773 7.99912C7.29753 7.44991 7 6.70743 7 5.93356C7 5.15969 7.29753 4.41721 7.82773 3.868C8.09229 3.59395 8.40697 3.37643 8.75365 3.228C9.10033 3.07957 9.47215 3.00315 9.84768 3.00315C10.2232 3.00315 10.595 3.07957 10.9417 3.228C11.2884 3.37643 11.6031 3.59395 11.8676 3.868L12.0001 4.00554L12.1326 3.868C12.5297 3.45523 13.0373 3.17331 13.5907 3.05814C14.1442 2.94296 14.7184 2.99973 15.2404 3.22123C15.7623 3.44273 16.2083 3.81893 16.5217 4.30194C16.8351 4.78496 17.0016 5.35293 17 5.93356Z" fill="#0052B4" stroke="#0052B4" stroke-width="1.5" stroke-linejoin="round"/>
<path d="M18 20L21.824 16.176C21.9366 16.0636 21.9999 15.9111 22 15.752V10.5C22 10.1022 21.842 9.72064 21.5607 9.43934C21.2794 9.15804 20.8978 9 20.5 9V9C20.1022 9 19.7206 9.15804 19.4393 9.43934C19.158 9.72064 19 10.1022 19 10.5V15" stroke="#333333" stroke-width="1.5" stroke-linecap="round" stroke-linejoin="round"/>
<path d="M18 16L18.858 15.142C18.9031 15.097 18.9388 15.0435 18.9632 14.9846C18.9876 14.9258 19.0001 14.8627 19 14.799C18.9999 14.7091 18.9747 14.6209 18.9274 14.5445C18.8801 14.468 18.8124 14.4062 18.732 14.366L18.289 14.145C17.9137 13.9573 17.4889 13.8925 17.0747 13.9596C16.6604 14.0267 16.2778 14.2224 15.981 14.519L15.086 15.414C14.7109 15.789 14.5001 16.2976 14.5 16.828V20" stroke="#333333" stroke-width="1.5" stroke-linecap="round" stroke-linejoin="round"/>
<path d="M6 20L2.176 16.176C2.06345 16.0636 2.00014 15.9111 2 15.752V10.5C2 10.1022 2.15804 9.72064 2.43934 9.43934C2.72064 9.15804 3.10218 9 3.5 9V9C3.89782 9 4.27936 9.15804 4.56066 9.43934C4.84196 9.72064 5 10.1022 5 10.5V15" stroke="#333333" stroke-width="1.5" stroke-linecap="round" stroke-linejoin="round"/>
<path d="M6 16L5.142 15.142C5.09697 15.0969 5.06125 15.0435 5.03688 14.9846C5.01252 14.9258 4.99999 14.8627 5 14.799V14.799C5 14.616 5.104 14.449 5.268 14.366L5.711 14.145C6.08631 13.9573 6.51114 13.8925 6.92534 13.9596C7.33955 14.0267 7.72216 14.2224 8.019 14.519L8.914 15.414C9.2891 15.789 9.49989 16.2976 9.5 16.828V20" stroke="#333333" stroke-width="1.5" stroke-linecap="round" stroke-linejoin="round"/>
</svg>
