<svg width="27" height="27" viewBox="0 0 27 27" fill="none" xmlns="http://www.w3.org/2000/svg">
<path d="M5.0625 22.5L4.5 16.875L11.25 16.3125L11.8125 13.5H15.75L16.3125 16.875H21.9375V22.5H5.0625Z" fill="#0052B4"/>
<path d="M22.5 7.875H18V5.625L15.75 3.375H11.25L9 5.625V7.875H4.5C3.2625 7.875 2.25 8.8875 2.25 10.125V15.75C2.25 16.5938 2.7 17.3025 3.375 17.6962V21.375C3.375 22.6238 4.37625 23.625 5.625 23.625H21.375C22.6238 23.625 23.625 22.6238 23.625 21.375V17.685C24.2887 17.2913 24.75 16.5712 24.75 15.75V10.125C24.75 8.8875 23.7375 7.875 22.5 7.875ZM11.25 5.625H15.75V7.875H11.25V5.625ZM21.375 21.375H5.625V18H10.125V19.125H16.875V18H21.375V21.375ZM12.375 16.875V14.625H14.625V16.875H12.375ZM22.5 15.75H16.875V12.375H10.125V15.75H4.5V10.125H22.5V15.75Z" fill="#333333"/>
</svg>
