<svg width="27" height="27" viewBox="0 0 27 27" fill="none" xmlns="http://www.w3.org/2000/svg">
<path d="M13.5 6.75C13.7238 6.75 13.9384 6.8389 14.0966 6.99713C14.2549 7.15536 14.3438 7.36997 14.3438 7.59375V12.6562H19.4062C19.63 12.6562 19.8446 12.7451 20.0029 12.9034C20.1611 13.0616 20.25 13.2762 20.25 13.5C20.25 13.7238 20.1611 13.9384 20.0029 14.0966C19.8446 14.2549 19.63 14.3438 19.4062 14.3438H14.3438V19.4062C14.3438 19.63 14.2549 19.8446 14.0966 20.0029C13.9384 20.1611 13.7238 20.25 13.5 20.25C13.2762 20.25 13.0616 20.1611 12.9034 20.0029C12.7451 19.8446 12.6562 19.63 12.6562 19.4062V14.3438H7.59375C7.36997 14.3438 7.15536 14.2549 6.99713 14.0966C6.8389 13.9384 6.75 13.7238 6.75 13.5C6.75 13.2762 6.8389 13.0616 6.99713 12.9034C7.15536 12.7451 7.36997 12.6562 7.59375 12.6562H12.6562V7.59375C12.6562 7.36997 12.7451 7.15536 12.9034 6.99713C13.0616 6.8389 13.2762 6.75 13.5 6.75Z" fill="#333333"/>
</svg>
