<svg width="32" height="32" viewBox="0 0 32 32" fill="none" xmlns="http://www.w3.org/2000/svg">
<path d="M9 11L7.77115 10.1398C7.45041 10.598 7.41124 11.1966 7.66953 11.6927C7.92783 12.1888 8.44069 12.5 9 12.5V11ZM11.2712 5.13981L7.77115 10.1398L10.2288 11.8602L13.7288 6.86019L11.2712 5.13981ZM9 12.5H27.5V9.5H9V12.5Z" fill="#0052B4"/>
<path d="M26.4968 18.5H4.74998C4.61248 18.5 4.49998 18.6125 4.49998 18.75V20.625C4.49998 20.7625 4.61248 20.875 4.74998 20.875H23.6625L19.1531 26.5938C19.025 26.7563 19.1406 27 19.35 27H21.6156C21.7687 27 21.9125 26.9313 22.0093 26.8094L27.2843 20.1187C27.8 19.4625 27.3343 18.5 26.4968 18.5ZM27.25 11.125H8.33747L12.8468 5.40625C12.975 5.24375 12.8593 5 12.65 5H10.3843C10.2312 5 10.0875 5.06875 9.9906 5.19063L4.7156 11.8813C4.19998 12.5375 4.6656 13.5 5.49998 13.5H27.25C27.3875 13.5 27.5 13.3875 27.5 13.25V11.375C27.5 11.2375 27.3875 11.125 27.25 11.125Z" fill="#333333"/>
</svg>
