<svg width="27" height="23" viewBox="0 0 27 23" fill="none" xmlns="http://www.w3.org/2000/svg">
<path d="M4.52504 6.60318C3.75287 6.40991 3.14989 5.80679 2.95648 5.03462L2.92336 4.90311L2.89031 5.03462C2.69689 5.80679 2.09384 6.40991 1.32168 6.60318L1.18994 6.63645L1.32168 6.66942C2.09384 6.86276 2.69697 7.46588 2.89031 8.23798L2.92336 8.36986L2.95648 8.23798C3.14997 7.46581 3.75287 6.86268 4.52504 6.66942L4.657 6.63645L4.52504 6.60318Z" fill="#333333"/>
<path d="M2.66102 11.5869C2.04488 11.4326 1.56392 10.9514 1.40939 10.3353L1.38314 10.2302L1.35668 10.3353C1.20236 10.9514 0.721178 11.4326 0.105044 11.5869L0 11.6136L0.105044 11.6402C0.721178 11.7943 1.20236 12.2754 1.35668 12.8913L1.38314 12.9966L1.40939 12.8913C1.56392 12.2754 2.04488 11.7943 2.66102 11.6402L2.76621 11.6136L2.66102 11.5869Z" fill="#333333"/>
<path d="M11.5472 4.03208C11.5005 3.99403 11.4486 3.98184 11.3972 3.98476C11.3112 4.60657 11.2508 4.84821 11.2508 4.84821C11.2508 4.84821 11.2487 4.84074 11.2454 4.82803C11.2523 5.02496 11.2581 5.20177 11.2622 5.34704C11.302 5.35467 11.344 5.35362 11.3832 5.33448C11.5144 5.27033 11.6347 4.75423 11.6786 4.58743C11.7225 4.42078 11.736 4.18565 11.5472 4.03208Z" fill="#333333"/>
<path d="M6.00448 5.20722C6.00515 5.20236 6.00597 5.19675 6.00687 5.19033C6.00597 5.19653 6.00515 5.20221 6.00448 5.20722ZM5.824 4.37629C5.81637 4.32111 5.75634 4.17682 5.68621 3.98505C5.64381 3.98736 5.6018 4.0006 5.56322 4.03207C5.37444 4.18571 5.38805 4.42077 5.43178 4.5875C5.47567 4.75422 5.59604 5.27032 5.7274 5.33455C5.8308 5.38501 5.95431 5.31122 6.00216 5.27757C6.00224 5.25843 6.00231 5.24004 6.00246 5.2206C6.00291 5.21746 6.00366 5.21283 6.0044 5.2073C6.00246 5.22068 6.00126 5.22808 6.00126 5.22808C6.00126 5.22808 5.8705 4.71497 5.824 4.37629ZM6.02212 5.07242C6.02235 5.0704 6.02257 5.06891 6.0228 5.06681V5.06674C6.02257 5.06876 6.02235 5.07048 6.02212 5.07242Z" fill="#333333"/>
<path d="M9.87741 7.86844C9.8312 7.72452 9.80765 7.57634 9.79808 7.43413C9.58904 7.55839 9.38389 7.65439 9.17993 7.74882C9.0058 7.82926 8.37016 7.8487 8.15394 7.74822C7.98766 7.67084 7.77032 7.55742 7.55201 7.4292C7.54259 7.57297 7.51904 7.72302 7.47238 7.86844C7.41848 8.03659 7.08241 8.1746 6.7124 8.31142C6.7838 8.40996 7.46962 9.3105 8.68805 9.3105C9.95741 9.3105 10.613 8.38035 10.6599 8.31142C10.2636 8.18701 9.94051 8.06537 9.87741 7.86844Z" fill="#333333"/>
<path d="M11.2454 4.82754C11.2194 4.72856 11.1083 4.27107 11.1189 3.72694C11.1248 3.43064 11.156 3.08897 11.1218 2.8726C11.0876 2.65608 10.9736 2.3029 10.7118 2.28024C10.7118 2.28024 9.545 3.58772 7.04286 3.42347C6.80017 3.40747 6.58455 3.36911 6.39204 3.31401C6.15361 3.49988 6.06771 3.73404 6.07451 3.92596C6.09664 4.57133 6.01335 5.14948 6.00266 5.22043C6.00191 5.3257 6.00146 5.42648 6.00146 5.52009C6.00146 6.18497 6.41103 6.61479 7.01849 7.07811C7.35732 7.33672 7.84456 7.60407 8.15394 7.74814C8.37015 7.84863 9.00588 7.82919 9.17993 7.74874C9.5068 7.59749 9.83673 7.44191 10.1807 7.17268C10.7444 6.73195 11.2685 6.23259 11.2685 5.67178C11.2684 5.53033 11.2593 5.21811 11.2454 4.82754Z" fill="#333333"/>
<path d="M11.2416 1.13712C10.953 0.785501 10.5923 0.60644 10.1934 0.655411C9.88976 0.26028 9.40872 -0.0395252 8.64485 0.00428677C7.44443 0.0734439 7.4309 0.70341 6.51265 0.978992C5.59446 1.25472 5.22468 0.529433 4.85616 0.778772C4.4875 1.02796 4.70499 1.9753 5.45091 2.76138C5.38901 3.40779 5.80343 4.22512 5.82421 4.37637C5.87072 4.71505 6.00155 5.22801 6.00155 5.22801C6.00155 5.22801 6.0983 4.61531 6.0746 3.92613C6.06787 3.73429 6.1537 3.50013 6.39212 3.31419C6.58464 3.36929 6.80026 3.40764 7.04295 3.42364C9.54509 3.5879 10.7119 2.28042 10.7119 2.28042C10.9737 2.30307 11.0877 2.65626 11.1219 2.87278C11.156 3.08915 11.1249 3.43082 11.119 3.72711C11.1071 4.34272 11.251 4.84828 11.251 4.84828C11.251 4.84828 11.3192 4.57516 11.4141 3.86176C11.4683 3.45362 12.007 2.06921 11.2416 1.13712Z" fill="#333333"/>
<path d="M11.9558 8.69678L10.6627 8.30703C10.6627 8.30703 10.0062 9.31052 8.68799 9.31052C7.3989 9.31052 6.70576 8.30209 6.70576 8.30209L5.35843 8.70074C4.64144 8.91307 4.14941 9.5716 4.14941 10.3195V12.1583H13.1567V10.3129C13.1567 9.56823 12.6688 8.9115 11.9558 8.69678Z" fill="#333333"/>
<path d="M22.4945 14.7269C22.4476 14.6888 22.3959 14.6766 22.3445 14.6796C22.2584 15.3013 22.1981 15.543 22.1981 15.543C22.1981 15.543 22.196 15.5356 22.1926 15.5228C22.1997 15.7198 22.2054 15.8966 22.2094 16.0418C22.2492 16.0494 22.2912 16.0483 22.3304 16.0292C22.4617 15.9651 22.5819 15.449 22.6259 15.2822C22.6697 15.1156 22.6832 14.8805 22.4945 14.7269Z" fill="#333333"/>
<path d="M16.9488 15.9228C16.9488 15.9228 16.818 15.4098 16.7715 15.071C16.7639 15.0159 16.7038 14.8715 16.6337 14.6798C16.5913 14.6822 16.5493 14.6954 16.5107 14.7269C16.3219 14.8805 16.3356 15.1156 16.3793 15.2823C16.4231 15.449 16.5435 15.9652 16.6749 16.0293C16.7782 16.0798 16.9017 16.006 16.9496 15.9724C16.9497 15.9533 16.9497 15.9349 16.9499 15.9155C16.9492 15.9203 16.9488 15.9228 16.9488 15.9228Z" fill="#333333"/>
<path d="M20.8247 18.5633C20.7785 18.4194 20.7549 18.2712 20.7453 18.129C20.5363 18.2532 20.3312 18.3492 20.1272 18.4437C19.9531 18.5242 19.3174 18.5435 19.1012 18.4431C18.935 18.3657 18.7176 18.2522 18.4993 18.124C18.4899 18.2678 18.4663 18.4179 18.4196 18.5633C18.3657 18.7315 18.0297 18.8695 17.6597 19.0062C17.7311 19.1048 18.4169 20.0053 19.6353 20.0053C20.9047 20.0053 21.5602 19.0752 21.6071 19.0062C21.2108 18.8818 20.8879 18.7602 20.8247 18.5633Z" fill="#333333"/>
<path d="M22.1925 15.5225C22.1664 15.4234 22.0554 14.966 22.066 14.4219C22.0719 14.1256 22.103 13.784 22.0688 13.5676C22.0346 13.3512 21.9206 12.9979 21.6589 12.9752C21.6589 12.9752 20.4921 14.2827 17.9899 14.1185C17.7472 14.1025 17.5316 14.0641 17.3391 14.009C17.1006 14.1949 17.0147 14.429 17.0215 14.6208C17.0436 15.2662 16.9604 15.8444 16.9496 15.9153C16.9489 16.0206 16.9485 16.1214 16.9485 16.215C16.9485 16.8799 17.358 17.3097 17.9654 17.773C18.3043 18.0316 18.7915 18.299 19.1009 18.4431C19.3172 18.5435 19.9528 18.5241 20.1269 18.4437C20.4537 18.2923 20.7837 18.1368 21.1277 17.8675C21.6913 17.4268 22.2155 16.9274 22.2155 16.3666C22.2155 16.2252 22.2064 15.913 22.1925 15.5225Z" fill="#333333"/>
<path d="M22.1889 11.832C21.9003 11.4804 21.5396 11.3013 21.1406 11.3502C20.837 10.9551 20.3559 10.6553 19.5921 10.6992C18.3917 10.7683 18.3781 11.3984 17.4599 11.6739C16.5417 11.9496 16.172 11.2243 15.8034 11.4737C15.4348 11.7229 15.6522 12.6702 16.3981 13.4563C16.3362 14.1028 16.7506 14.92 16.7714 15.0711C16.8179 15.4099 16.9488 15.9229 16.9488 15.9229C16.9488 15.9229 17.0454 15.3102 17.0218 14.6209C17.0151 14.4291 17.1009 14.1949 17.3394 14.0091C17.5319 14.0642 17.7475 14.1025 17.9902 14.1185C20.4924 14.2828 21.6592 12.9752 21.6592 12.9752C21.921 12.998 22.0351 13.3512 22.0692 13.5677C22.1034 13.784 22.0722 14.1257 22.0663 14.422C22.0544 15.0376 22.1983 15.5432 22.1983 15.5432C22.1983 15.5432 22.2665 15.2701 22.3613 14.5567C22.4156 14.1485 22.9543 12.7641 22.1889 11.832Z" fill="#333333"/>
<path d="M22.903 19.3916L21.6098 19.0019C21.6098 19.0019 20.9533 20.0053 19.6351 20.0053C18.346 20.0053 17.6528 18.9969 17.6528 18.9969L16.3054 19.3956C15.5884 19.6079 15.0964 20.2664 15.0964 21.0144V22.8532H24.1037V21.0078C24.1038 20.2631 23.616 19.6063 22.903 19.3916Z" fill="#333333"/>
<path d="M26.8897 12.6025C26.2448 12.4408 25.741 11.9374 25.5793 11.2924L25.5519 11.1823L25.5241 11.2924C25.3626 11.9374 24.8588 12.4408 24.2137 12.6025L24.1038 12.6302L24.2137 12.6582C24.8588 12.8196 25.3626 13.3233 25.5241 13.9685L25.5519 14.0785L25.5793 13.9685C25.741 13.3233 26.2448 12.8196 26.8897 12.6582L26.9998 12.6302L26.8897 12.6025Z" fill="#333333"/>
<path d="M24.7227 7.44612C24.5384 7.35319 24.3135 7.42735 24.2206 7.61172L23.5184 9.00541C22.9785 7.00509 21.8176 5.19818 20.2058 3.86812C18.4122 2.38808 16.1416 1.57285 13.8121 1.57285C13.6056 1.57285 13.4382 1.74024 13.4382 1.94667C13.4382 2.15309 13.6056 2.32049 13.8121 2.32049C18.0448 2.32049 21.7523 5.21096 22.8128 9.26163L21.3191 8.53342C21.1334 8.44296 20.9097 8.52004 20.8192 8.70568C20.7287 8.89124 20.8058 9.11501 20.9914 9.20555L23.2796 10.321C23.3323 10.3467 23.3881 10.3588 23.4431 10.3588C23.58 10.3588 23.7116 10.2834 23.7773 10.1531L24.8882 7.94816C24.9812 7.7638 24.907 7.53898 24.7227 7.44612Z" fill="#333333"/>
<path d="M14.0877 21.3491C9.85486 21.3491 6.14744 18.4586 5.08691 14.4081L6.58063 15.1363C6.76634 15.2267 6.99004 15.1496 7.0805 14.9641C7.17097 14.7785 7.09388 14.5547 6.90832 14.4642L4.62015 13.3487C4.56737 13.323 4.51159 13.3109 4.45657 13.3109C4.31975 13.3109 4.18809 13.3862 4.12244 13.5166L3.01152 15.7215C2.91859 15.9059 2.99275 16.1307 3.17712 16.2236C3.36142 16.3165 3.58631 16.2423 3.67917 16.058L4.38143 14.6643C4.9213 16.6646 6.08217 18.4715 7.69402 19.8016C9.48755 21.2817 11.7582 22.0968 14.0877 22.0968C14.2942 22.0968 14.4615 21.9295 14.4615 21.723C14.4615 21.5165 14.2942 21.3491 14.0877 21.3491Z" fill="#333333"/>
</svg>
